<svg width="32" height="32" viewBox="0 0 32 32" fill="none" xmlns="http://www.w3.org/2000/svg">
  <defs>
    <linearGradient id="heartGradient" x1="0%" y1="0%" x2="100%" y2="100%">
      <stop offset="0%" style="stop-color:#ff6b9d;stop-opacity:1" />
      <stop offset="100%" style="stop-color:#ff8fab;stop-opacity:1" />
    </linearGradient>
  </defs>
  <path d="M16 28.5C16 28.5 4 20 4 12C4 8.68629 6.68629 6 10 6C12.5 6 14.5 7.5 16 9.5C17.5 7.5 19.5 6 22 6C25.3137 6 28 8.68629 28 12C28 20 16 28.5 16 28.5Z" fill="url(#heartGradient)" stroke="#ff6b9d" stroke-width="1"/>
  <path d="M16 28.5C16 28.5 4 20 4 12C4 8.68629 6.68629 6 10 6C12.5 6 14.5 7.5 16 9.5C17.5 7.5 19.5 6 22 6C25.3137 6 28 8.68629 28 12C28 20 16 28.5 16 28.5Z" fill="url(#heartGradient)" stroke="#ff6b9d" stroke-width="1"/>
</svg> 